<?xml version="1.0" encoding="utf-8"?>
<!-- Generator: Adobe Illustrator 21.0.1, SVG Export Plug-In . SVG Version: 6.00 Build 0)  -->
<svg version="1.1" id="Layer_1" xmlns="http://www.w3.org/2000/svg" xmlns:xlink="http://www.w3.org/1999/xlink" x="0px" y="0px"
	 viewBox="0 0 10 6" style="enable-background:new 0 0 10 6;" xml:space="preserve">
<style type="text/css">
	.st0{fill:#666666;}
	.st1{fill:#808080;}
	.st2{fill:#B3B3B3;}
	.st3{fill:#999999;}
	.st4{fill:#4D4D4D;}
	.st5{fill:#FCBB29;}
	.st6{fill:#D39A29;}
	.st7{fill:none;}
</style>
<path class="st0" d="M0.8,4.3l1.3-1L1.3,3.1L0.4,3l0,1.1C0.4,4.3,0.6,4.4,0.8,4.3z"/>
<g>
	<path class="st1" d="M0.4,2.9l1,0l0.7-0.4L0.8,1.6c-0.2-0.1-0.4,0-0.4,0.2L0.4,2.9z"/>
	<polygon class="st1" points="5.7,4 8.4,3.9 8.8,2.9 8.4,1.8 5.7,1.9 4.8,2.9 	"/>
</g>
<polygon class="st2" points="2.1,3.3 5.6,4 5.7,4 5.7,1.9 5.6,1.9 2.1,2.6 1.7,3 "/>
<polygon class="st3" points="1.8,3 2.1,2.6 5.6,1.9 5.7,1.9 5.7,2.5 5.6,2.5 "/>
<polygon class="st4" points="0.4,3 2.1,3.3 2.1,2.6 0.4,2.9 "/>
<path class="st5" d="M8.4,1.8l0,2.1l0,0l0.4,0c0,0,0.1,0,0.1,0c1.1-0.2,1.1-1.9,0-2.1c-0.1,0-0.1,0-0.1,0L8.4,1.8L8.4,1.8z"/>
<polygon class="st0" points="8.4,2.4 5.7,2.5 5.7,1.9 8.4,1.8 8.4,3.9 8.4,3.9 "/>
<path class="st6" d="M9,2.5c-0.1,0-0.1,0-0.1,0l-0.4,0l0,0l0-0.6l0,0l0.4,0c0,0,0.1,0,0.1,0C9.7,2,10,2.6,9.8,3.2
	C9.7,2.8,9.5,2.5,9,2.5z"/>
<rect id="_x3C_Slice_x3E_" x="-1.1" y="0.9" transform="matrix(1 -1.602446e-03 1.602446e-03 1 -4.650414e-03 7.859213e-03)" class="st7" width="12" height="4.1"/>
</svg>
