<?xml version="1.0" encoding="utf-8"?>
<!-- Generator: Adobe Illustrator 21.0.1, SVG Export Plug-In . SVG Version: 6.00 Build 0)  -->
<svg version="1.1" id="Capa_1" xmlns="http://www.w3.org/2000/svg" xmlns:xlink="http://www.w3.org/1999/xlink" x="0px" y="0px"
	 viewBox="0 0 512 368" style="enable-background:new 0 0 512 368;" xml:space="preserve">
<style type="text/css">
	.st0{fill:#5C546A;}
	.st1{fill:#FF4F19;}
	.st2{fill:#E5001E;}
	.st3{fill:#B6B8BE;}
	.st4{fill:#888693;}
</style>
<g>
	<path class="st0" d="M66,192.3l93.9,0.5l120,0.6c4.4,0,8-3.5,8-8c0-4.4-3.5-8-8-8l-120-0.6l-93.9-0.5l0.1-25.4c0-2.3,0.3-4.5,1-6.6
		l-24.9-0.1c-4.4,0-8,3.5-8,8l-0.1,24L8,176c-4.4,0-8,3.5-8,8s3.5,8,8,8l26.1,0.1l-0.1,24c0,4.4,3.5,8,8,8l24.9,0.1
		c-0.6-2.1-0.9-4.3-0.9-6.6L66,192.3z"/>
	<path class="st0" d="M10.4,367.9l121-19.5c16.4-2.6,32.1-9.3,45.4-19.1l107.6-79.8l-122.7-0.7L94,242.3L2.9,355
		c-1.2,1.4-1.8,3.2-1.8,5c0,1.4,0.3,2.8,1.1,4.1C3.9,366.9,7.1,368.4,10.4,367.9z"/>
	<path class="st0" d="M160.3,121l1.3-0.1l123.4,0.6L178.4,40.5c-13.2-10-28.8-16.8-45.2-19.6L12.4,0.1C9.1-0.4,5.8,1.1,4.1,3.9
		C3.4,5.2,3,6.6,3,8c0,1.8,0.6,3.6,1.7,5l89.9,113.6L160.3,121L160.3,121z"/>
	<path class="st1" d="M501.8,206.1c-0.8,0.5-1.5,1.1-2.3,1.6C500.3,207.2,501.1,206.7,501.8,206.1z"/>
	<path class="st1" d="M284.4,249.5l101.3,0.5c44.9,0.2,89.5-25.5,113.6-42.2c-12.1,8.4-29.5,19.1-49.5,27.6l0.3-49.1l-41.1-0.2
		c-0.1,17.1-14,30.9-31.1,30.8s-30.9-14-30.8-31.1l-59.1-0.3c0,4.4-3.6,8-8,8l-120-0.6l-0.3,55.8l-72.1-6.9l6.4,0.6l67.7,6.5
		L284.4,249.5z"/>
	<polygon class="st1" points="160.3,121 160.3,121 161.7,120.8 	"/>
	<path class="st2" d="M499.7,165.5c0.8,0.6,1.6,1.1,2.3,1.7C501.3,166.6,500.5,166.1,499.7,165.5z"/>
	<path class="st2" d="M160.3,121l-0.3,55.8l120,0.6c4.4,0,8,3.6,8,8l59.1,0.3c0.1-17.1,14-30.9,31.1-30.8
		c17.1,0.1,30.9,14,30.8,31.1l41.1,0.2l0.3-49.1c19.9,8.7,37.2,19.6,49.2,28.1c-23.9-16.9-68.3-43.1-113.2-43.4l-101.3-0.5
		l-123.4-0.6L160.3,121z"/>
	<path class="st3" d="M159.7,248.6l0.3-55.8L66,192.3l-0.1,25.4c0,2.3,0.3,4.5,0.9,6.6c2.6,9.4,10.7,16.4,20.8,17.4L159.7,248.6z"/>
	<path class="st4" d="M66.1,176.3l93.9,0.5l0.3-55.8l0,0l0,0l-65.7,5.6l-6.4,0.5c-10.2,0.9-18.3,7.8-21,17.2c-0.6,2.1-0.9,4.3-1,6.6
		L66.1,176.3L66.1,176.3z"/>
	
		<ellipse transform="matrix(5.376116e-03 -1 1 5.376116e-03 190.0602 563.038)" class="st0" cx="378.1" cy="186" rx="30.9" ry="30.9"/>
	<path class="st0" d="M450.1,186.4l61.9,0.3c0-7.7-3.7-15-10-19.5c-0.8-0.5-1.5-1.1-2.3-1.7c0,0-0.1-0.1-0.1-0.1
		c-12.1-8.5-29.3-19.4-49.2-28.1C450.3,137.3,450.1,186.4,450.1,186.4z"/>
	<path class="st4" d="M449.8,235.5c20-8.5,37.4-19.2,49.5-27.6c0,0,0.1-0.1,0.1-0.1c0.8-0.6,1.6-1.1,2.3-1.6
		c6.3-4.5,10.1-11.7,10.2-19.4l-61.9-0.3L449.8,235.5z"/>
</g>
</svg>
